<svg id="Layer_1" data-name="Layer 1" xmlns="http://www.w3.org/2000/svg" viewBox="0 0 512 512"><defs><style>.cls-1{fill:#cad8dd;}</style></defs><title>stars_style_4</title><circle class="cls-1" cx="44.8" cy="44.8" r="19.2"/><circle class="cls-1" cx="460.8" cy="396.8" r="12.8"/><circle class="cls-1" cx="236.8" cy="313.6" r="19.2"/><circle class="cls-1" cx="473.6" cy="38.4" r="38.4"/><circle class="cls-1" cx="307.2" cy="473.6" r="38.4"/><circle class="cls-1" cx="409.6" cy="153.6" r="12.8"/><circle class="cls-1" cx="64" cy="230.4" r="12.8"/><circle class="cls-1" cx="19.2" cy="467.2" r="19.2"/><polygon class="cls-1" points="268.8 140.8 222.72 110.08 192 64 161.28 110.08 115.2 140.8 161.28 166.4 192 217.6 222.72 166.4 268.8 140.8"/><polygon class="cls-1" points="409.6 256 384 217.6 358.4 256 320 281.6 358.4 302.93 384 345.6 409.6 302.93 448 281.6 409.6 256"/><polygon class="cls-1" points="128 320 102.4 358.4 64 384 102.4 405.33 128 448 153.6 405.33 192 384 153.6 358.4 128 320"/><circle class="cls-1" cx="281.6" cy="51.2" r="12.8"/></svg>